{"asset":{"version":"2.0","generator":"otd bioscale-viz tools/models/build-models.mjs"},"scene":0,"scenes":[{"nodes":[0]}],"nodes":[{"mesh":0,"name":"hex-molded-tub"}],"meshes":[{"name":"hex-molded-tub","primitives":[{"attributes":{"POSITION":0,"NORMAL":1},"indices":2,"mode":4}]}],"buffers":[{"uri":"hex-molded-tub.bin","byteLength":170208}],"bufferViews":[{"buffer":0,"byteOffset":0,"byteLength":47244,"target":34962},{"buffer":0,"byteOffset":47244,"byteLength":47244,"target":34962},{"buffer":0,"byteOffset":94488,"byteLength":75720,"target":34963}],"accessors":[{"bufferView":0,"componentType":5126,"count":3937,"type":"VEC3","min":[-0.28672137451171875,-1.0000000036274937e-18,-0.24830799865722655],"max":[0.28672137451171875,0.12,0.24830799865722655]},{"bufferView":1,"componentType":5126,"count":3937,"type":"VEC3"},{"bufferView":2,"componentType":5125,"count":18930,"type":"SCALAR"}]}
