<svg xmlns="http://www.w3.org/2000/svg" viewBox="0 0 780 340" role="img"
     aria-label="Decoupling capacitor placement: cap at the pin versus cap far away"
     font-family="ui-monospace, 'SFMono-Regular', Menlo, monospace">

  <!-- divider -->
  <line x1="390" y1="28" x2="390" y2="276" stroke="#8a8a8a" stroke-width="1" stroke-dasharray="4 5" stroke-opacity="0.5"/>

  <!-- ── Panel A: cap AT the pin (good) ── -->
  <text x="205" y="44" text-anchor="middle" fill="#4a8fff" font-size="13" font-weight="700">✓  cap right at the pin</text>

  <!-- enclosed current loop (small) -->
  <rect x="124" y="120" width="52" height="80" fill="rgba(74,143,255,0.16)"/>
  <rect x="60" y="92" width="64" height="136" rx="3" fill="rgba(200,150,62,0.12)" stroke="#c8963e" stroke-width="2"/>
  <text x="92" y="165" text-anchor="middle" fill="#fff" font-size="12" font-weight="700">IC</text>
  <!-- power out (top) and ground return (bottom) -->
  <path d="M124,120 H176" fill="none" stroke="#c8963e" stroke-width="2"/>
  <path d="M124,200 H176" fill="none" stroke="#8a8a8a" stroke-width="2"/>
  <!-- cap between them -->
  <path d="M176,120 V146" fill="none" stroke="#8a8a8a" stroke-width="1.5"/>
  <line x1="166" y1="146" x2="186" y2="146" stroke="#8a8a8a" stroke-width="1.5"/>
  <line x1="166" y1="152" x2="186" y2="152" stroke="#8a8a8a" stroke-width="1.5"/>
  <path d="M176,152 V200" fill="none" stroke="#8a8a8a" stroke-width="1.5"/>
  <text x="150" y="166" text-anchor="middle" fill="#4a8fff" font-size="9">small loop</text>
  <text x="205" y="250" text-anchor="middle" fill="#8a8a8a" font-size="11">short path · low inductance —</text>
  <text x="205" y="264" text-anchor="middle" fill="#8a8a8a" font-size="11">the cap dumps current fast</text>

  <!-- ── Panel B: cap FAR (bad) ── -->
  <text x="588" y="44" text-anchor="middle" fill="#ef5350" font-size="13" font-weight="700">✗  cap far from the pin</text>

  <!-- enclosed current loop (large) -->
  <rect x="504" y="120" width="180" height="80" fill="rgba(239,83,80,0.16)"/>
  <rect x="440" y="92" width="64" height="136" rx="3" fill="rgba(200,150,62,0.12)" stroke="#c8963e" stroke-width="2"/>
  <text x="472" y="165" text-anchor="middle" fill="#fff" font-size="12" font-weight="700">IC</text>
  <path d="M504,120 H684" fill="none" stroke="#c8963e" stroke-width="2"/>
  <path d="M504,200 H684" fill="none" stroke="#8a8a8a" stroke-width="2"/>
  <path d="M684,120 V146" fill="none" stroke="#8a8a8a" stroke-width="1.5"/>
  <line x1="674" y1="146" x2="694" y2="146" stroke="#8a8a8a" stroke-width="1.5"/>
  <line x1="674" y1="152" x2="694" y2="152" stroke="#8a8a8a" stroke-width="1.5"/>
  <path d="M684,152 V200" fill="none" stroke="#8a8a8a" stroke-width="1.5"/>
  <text x="594" y="166" text-anchor="middle" fill="#ef5350" font-size="9">big loop</text>
  <text x="588" y="250" text-anchor="middle" fill="#8a8a8a" font-size="11">long path · trace inductance</text>
  <text x="588" y="264" text-anchor="middle" fill="#8a8a8a" font-size="11">chokes the fast current</text>

  <!-- shared takeaway -->
  <text x="390" y="312" text-anchor="middle" fill="#c8963e" font-size="11" font-weight="700">Same cap, same schematic — placement decides whether it works.</text>
</svg>
