<?xml version="1.0" standalone="no"?>
 <!DOCTYPE svg PUBLIC "-//W3C//DTD SVG 1.1//EN" 
 "http://www.w3.org/Graphics/SVG/1.1/DTD/svg11.dtd"> 
<svg
  xmlns:svg="http://www.w3.org/2000/svg"
  xmlns="http://www.w3.org/2000/svg"
  xmlns:xlink="http://www.w3.org/1999/xlink"
  xmlns:inkscape="http://www.inkscape.org/namespaces/inkscape"
  version="1.1"
  width="14.8089mm" height="37.4659mm" viewBox="205.8021 102.1431 14.8089 37.4659">
<title>SVG Image created as foundry-l1-01-wroom-breakout.svg date 2026-06-10T17:52:56 </title>
  <desc>Image generated by Eeschema-SVG </desc>
<g style="fill:#000000; fill-opacity:1.0000;stroke:#000000; stroke-opacity:1.0000;
stroke-linecap:round; stroke-linejoin:round;"
 transform="translate(0 0) scale(1 1)">
</g>
<g style="fill:#FFFFFF; fill-opacity:1.0000; 
stroke:#FFFFFF; stroke-width:0.0001; stroke-opacity:1; 
stroke-linecap:round; stroke-linejoin:round;">
<rect x="0.000000" y="0.000000" width="297.002200" height="210.007200" rx="0.000000" />
<path style="fill:none; 
stroke:#840000; stroke-width:0.1524; stroke-opacity:1; 
stroke-linecap:round; stroke-linejoin:round;fill:none"
d="M 210.0580,128.2700
210.8200,127.0000
" /> 
<path style="fill:none; 
stroke:#840000; stroke-width:0.1524; stroke-opacity:1; 
stroke-linecap:round; stroke-linejoin:round;fill:none"
d="M 210.8200,127.0000
211.5820,128.2700
" /> 
<path style="fill:none; 
stroke:#840000; stroke-width:0.1524; stroke-opacity:1; 
stroke-linecap:round; stroke-linejoin:round;fill:none"
d="M 210.8200,129.5400
210.8200,127.0000
" /> 
</g>
<g style="fill:none; 
stroke:#840000; stroke-width:0.1524; stroke-opacity:1; 
stroke-linecap:round; stroke-linejoin:round;">
<path d="M210.8200 129.5400
L210.8200 129.5400
" />
</g>
<g style="fill:none; 
stroke:#008484; stroke-width:0.1524; stroke-opacity:1; 
stroke-linecap:round; stroke-linejoin:round;">
<text x="210.8200" y="125.0950"
textLength="5.2832" font-size="1.6933" lengthAdjust="spacingAndGlyphs"
text-anchor="middle" opacity="0" stroke-opacity="0">+3V3</text>
<g class="stroked-text"><desc>+3V3</desc>
<path d="M208.5823 124.5557
L209.5500 124.5557
" />
<path d="M209.0661 125.0395
L209.0661 124.0719
" />
<path d="M210.0338 123.7695
L210.8200 123.7695
" />
<path d="M210.8200 123.7695
L210.3966 124.2533
" />
<path d="M210.3966 124.2533
L210.5781 124.2533
" />
<path d="M210.5781 124.2533
L210.6990 124.3138
" />
<path d="M210.6990 124.3138
L210.7595 124.3743
" />
<path d="M210.7595 124.3743
L210.8200 124.4952
" />
<path d="M210.8200 124.4952
L210.8200 124.7976
" />
<path d="M210.8200 124.7976
L210.7595 124.9186
" />
<path d="M210.7595 124.9186
L210.6990 124.9791
" />
<path d="M210.6990 124.9791
L210.5781 125.0395
" />
<path d="M210.5781 125.0395
L210.2152 125.0395
" />
<path d="M210.2152 125.0395
L210.0943 124.9791
" />
<path d="M210.0943 124.9791
L210.0338 124.9186
" />
<path d="M211.1828 123.7695
L211.6061 125.0395
" />
<path d="M211.6061 125.0395
L212.0295 123.7695
" />
<path d="M212.3319 123.7695
L213.1181 123.7695
" />
<path d="M213.1181 123.7695
L212.6947 124.2533
" />
<path d="M212.6947 124.2533
L212.8762 124.2533
" />
<path d="M212.8762 124.2533
L212.9971 124.3138
" />
<path d="M212.9971 124.3138
L213.0576 124.3743
" />
<path d="M213.0576 124.3743
L213.1181 124.4952
" />
<path d="M213.1181 124.4952
L213.1181 124.7976
" />
<path d="M213.1181 124.7976
L213.0576 124.9186
" />
<path d="M213.0576 124.9186
L212.9971 124.9791
" />
<path d="M212.9971 124.9791
L212.8762 125.0395
" />
<path d="M212.8762 125.0395
L212.5133 125.0395
" />
<path d="M212.5133 125.0395
L212.3924 124.9791
" />
<path d="M212.3924 124.9791
L212.3319 124.9186
" />
</g></g>
<g style="fill:none; 
stroke:#840000; stroke-width:0.1524; stroke-opacity:1; 
stroke-linecap:round; stroke-linejoin:round;">
<circle cx="210.8200" cy="107.1880" r="0.7620" /> 
<path d="M210.8200 107.9500
L210.8200 110.4900
" />
</g>
<g style="fill:none; 
stroke:#008484; stroke-width:0.1524; stroke-opacity:1; 
stroke-linecap:round; stroke-linejoin:round;">
<text x="210.8200" y="106.0450"
textLength="3.6503" font-size="1.6933" lengthAdjust="spacingAndGlyphs"
text-anchor="middle" opacity="0" stroke-opacity="0">TP2</text>
<g class="stroked-text"><desc>TP2</desc>
<path d="M209.2174 104.7195
L209.9431 104.7195
" />
<path d="M209.5803 105.9895
L209.5803 104.7195
" />
<path d="M210.3664 105.9895
L210.3664 104.7195
" />
<path d="M210.3664 104.7195
L210.8502 104.7195
" />
<path d="M210.8502 104.7195
L210.9712 104.7800
" />
<path d="M210.9712 104.7800
L211.0317 104.8405
" />
<path d="M211.0317 104.8405
L211.0921 104.9614
" />
<path d="M211.0921 104.9614
L211.0921 105.1429
" />
<path d="M211.0921 105.1429
L211.0317 105.2638
" />
<path d="M211.0317 105.2638
L210.9712 105.3243
" />
<path d="M210.9712 105.3243
L210.8502 105.3848
" />
<path d="M210.8502 105.3848
L210.3664 105.3848
" />
<path d="M211.5760 104.8405
L211.6364 104.7800
" />
<path d="M211.6364 104.7800
L211.7574 104.7195
" />
<path d="M211.7574 104.7195
L212.0598 104.7195
" />
<path d="M212.0598 104.7195
L212.1807 104.7800
" />
<path d="M212.1807 104.7800
L212.2412 104.8405
" />
<path d="M212.2412 104.8405
L212.3017 104.9614
" />
<path d="M212.3017 104.9614
L212.3017 105.0824
" />
<path d="M212.3017 105.0824
L212.2412 105.2638
" />
<path d="M212.2412 105.2638
L211.5155 105.9895
" />
<path d="M211.5155 105.9895
L212.3017 105.9895
" />
</g><text x="215.6460" y="109.3470"
textLength="5.0412" font-size="1.6933" lengthAdjust="spacingAndGlyphs"
text-anchor="middle" opacity="0" stroke-opacity="0">5011</text>
<g class="stroked-text"><desc>5011</desc>
<path d="M214.1341 108.0215
L213.5293 108.0215
" />
<path d="M213.5293 108.0215
L213.4689 108.6263
" />
<path d="M213.4689 108.6263
L213.5293 108.5658
" />
<path d="M213.5293 108.5658
L213.6503 108.5053
" />
<path d="M213.6503 108.5053
L213.9527 108.5053
" />
<path d="M213.9527 108.5053
L214.0736 108.5658
" />
<path d="M214.0736 108.5658
L214.1341 108.6263
" />
<path d="M214.1341 108.6263
L214.1946 108.7472
" />
<path d="M214.1946 108.7472
L214.1946 109.0496
" />
<path d="M214.1946 109.0496
L214.1341 109.1706
" />
<path d="M214.1341 109.1706
L214.0736 109.2311
" />
<path d="M214.0736 109.2311
L213.9527 109.2915
" />
<path d="M213.9527 109.2915
L213.6503 109.2915
" />
<path d="M213.6503 109.2915
L213.5293 109.2311
" />
<path d="M213.5293 109.2311
L213.4689 109.1706
" />
<path d="M214.9807 108.0215
L215.1017 108.0215
" />
<path d="M215.1017 108.0215
L215.2226 108.0820
" />
<path d="M215.2226 108.0820
L215.2831 108.1425
" />
<path d="M215.2831 108.1425
L215.3436 108.2634
" />
<path d="M215.3436 108.2634
L215.4041 108.5053
" />
<path d="M215.4041 108.5053
L215.4041 108.8077
" />
<path d="M215.4041 108.8077
L215.3436 109.0496
" />
<path d="M215.3436 109.0496
L215.2831 109.1706
" />
<path d="M215.2831 109.1706
L215.2226 109.2311
" />
<path d="M215.2226 109.2311
L215.1017 109.2915
" />
<path d="M215.1017 109.2915
L214.9807 109.2915
" />
<path d="M214.9807 109.2915
L214.8598 109.2311
" />
<path d="M214.8598 109.2311
L214.7993 109.1706
" />
<path d="M214.7993 109.1706
L214.7388 109.0496
" />
<path d="M214.7388 109.0496
L214.6784 108.8077
" />
<path d="M214.6784 108.8077
L214.6784 108.5053
" />
<path d="M214.6784 108.5053
L214.7388 108.2634
" />
<path d="M214.7388 108.2634
L214.7993 108.1425
" />
<path d="M214.7993 108.1425
L214.8598 108.0820
" />
<path d="M214.8598 108.0820
L214.9807 108.0215
" />
<path d="M216.6136 109.2915
L215.8879 109.2915
" />
<path d="M216.2507 109.2915
L216.2507 108.0215
" />
<path d="M216.2507 108.0215
L216.1298 108.2030
" />
<path d="M216.1298 108.2030
L216.0088 108.3239
" />
<path d="M216.0088 108.3239
L215.8879 108.3844
" />
<path d="M217.8231 109.2915
L217.0974 109.2915
" />
<path d="M217.4602 109.2915
L217.4602 108.0215
" />
<path d="M217.4602 108.0215
L217.3393 108.2030
" />
<path d="M217.3393 108.2030
L217.2183 108.3239
" />
<path d="M217.2183 108.3239
L217.0974 108.3844
" />
</g></g>
<g style="fill:none; 
stroke:#840000; stroke-width:0.1524; stroke-opacity:1; 
stroke-linecap:round; stroke-linejoin:round;">
<circle cx="210.8200" cy="132.8420" r="0.7620" /> 
<path d="M210.8200 132.0800
L210.8200 129.5400
" />
</g>
<g style="fill:none; 
stroke:#008484; stroke-width:0.1524; stroke-opacity:1; 
stroke-linecap:round; stroke-linejoin:round;">
<text x="210.8199" y="137.0329"
textLength="3.6503" font-size="1.6933" lengthAdjust="spacingAndGlyphs"
text-anchor="middle" opacity="0" stroke-opacity="0">TP1</text>
<g class="stroked-text"><desc>TP1</desc>
<path d="M209.2173 135.7074
L209.9430 135.7074
" />
<path d="M209.5802 136.9774
L209.5802 135.7074
" />
<path d="M210.3663 136.9774
L210.3663 135.7074
" />
<path d="M210.3663 135.7074
L210.8501 135.7074
" />
<path d="M210.8501 135.7074
L210.9711 135.7679
" />
<path d="M210.9711 135.7679
L211.0316 135.8284
" />
<path d="M211.0316 135.8284
L211.0920 135.9493
" />
<path d="M211.0920 135.9493
L211.0920 136.1308
" />
<path d="M211.0920 136.1308
L211.0316 136.2517
" />
<path d="M211.0316 136.2517
L210.9711 136.3122
" />
<path d="M210.9711 136.3122
L210.8501 136.3727
" />
<path d="M210.8501 136.3727
L210.3663 136.3727
" />
<path d="M212.3016 136.9774
L211.5759 136.9774
" />
<path d="M211.9387 136.9774
L211.9387 135.7074
" />
<path d="M211.9387 135.7074
L211.8178 135.8889
" />
<path d="M211.8178 135.8889
L211.6968 136.0098
" />
<path d="M211.6968 136.0098
L211.5759 136.0703
" />
</g><text x="215.6460" y="131.1909"
textLength="5.0412" font-size="1.6933" lengthAdjust="spacingAndGlyphs"
text-anchor="middle" opacity="0" stroke-opacity="0">5010</text>
<g class="stroked-text"><desc>5010</desc>
<path d="M214.1341 129.8654
L213.5293 129.8654
" />
<path d="M213.5293 129.8654
L213.4689 130.4702
" />
<path d="M213.4689 130.4702
L213.5293 130.4097
" />
<path d="M213.5293 130.4097
L213.6503 130.3492
" />
<path d="M213.6503 130.3492
L213.9527 130.3492
" />
<path d="M213.9527 130.3492
L214.0736 130.4097
" />
<path d="M214.0736 130.4097
L214.1341 130.4702
" />
<path d="M214.1341 130.4702
L214.1946 130.5911
" />
<path d="M214.1946 130.5911
L214.1946 130.8935
" />
<path d="M214.1946 130.8935
L214.1341 131.0145
" />
<path d="M214.1341 131.0145
L214.0736 131.0750
" />
<path d="M214.0736 131.0750
L213.9527 131.1354
" />
<path d="M213.9527 131.1354
L213.6503 131.1354
" />
<path d="M213.6503 131.1354
L213.5293 131.0750
" />
<path d="M213.5293 131.0750
L213.4689 131.0145
" />
<path d="M214.9807 129.8654
L215.1017 129.8654
" />
<path d="M215.1017 129.8654
L215.2226 129.9259
" />
<path d="M215.2226 129.9259
L215.2831 129.9864
" />
<path d="M215.2831 129.9864
L215.3436 130.1073
" />
<path d="M215.3436 130.1073
L215.4041 130.3492
" />
<path d="M215.4041 130.3492
L215.4041 130.6516
" />
<path d="M215.4041 130.6516
L215.3436 130.8935
" />
<path d="M215.3436 130.8935
L215.2831 131.0145
" />
<path d="M215.2831 131.0145
L215.2226 131.0750
" />
<path d="M215.2226 131.0750
L215.1017 131.1354
" />
<path d="M215.1017 131.1354
L214.9807 131.1354
" />
<path d="M214.9807 131.1354
L214.8598 131.0750
" />
<path d="M214.8598 131.0750
L214.7993 131.0145
" />
<path d="M214.7993 131.0145
L214.7388 130.8935
" />
<path d="M214.7388 130.8935
L214.6784 130.6516
" />
<path d="M214.6784 130.6516
L214.6784 130.3492
" />
<path d="M214.6784 130.3492
L214.7388 130.1073
" />
<path d="M214.7388 130.1073
L214.7993 129.9864
" />
<path d="M214.7993 129.9864
L214.8598 129.9259
" />
<path d="M214.8598 129.9259
L214.9807 129.8654
" />
<path d="M216.6136 131.1354
L215.8879 131.1354
" />
<path d="M216.2507 131.1354
L216.2507 129.8654
" />
<path d="M216.2507 129.8654
L216.1298 130.0469
" />
<path d="M216.1298 130.0469
L216.0088 130.1678
" />
<path d="M216.0088 130.1678
L215.8879 130.2283
" />
<path d="M217.3997 129.8654
L217.5207 129.8654
" />
<path d="M217.5207 129.8654
L217.6416 129.9259
" />
<path d="M217.6416 129.9259
L217.7021 129.9864
" />
<path d="M217.7021 129.9864
L217.7626 130.1073
" />
<path d="M217.7626 130.1073
L217.8231 130.3492
" />
<path d="M217.8231 130.3492
L217.8231 130.6516
" />
<path d="M217.8231 130.6516
L217.7626 130.8935
" />
<path d="M217.7626 130.8935
L217.7021 131.0145
" />
<path d="M217.7021 131.0145
L217.6416 131.0750
" />
<path d="M217.6416 131.0750
L217.5207 131.1354
" />
<path d="M217.5207 131.1354
L217.3997 131.1354
" />
<path d="M217.3997 131.1354
L217.2788 131.0750
" />
<path d="M217.2788 131.0750
L217.2183 131.0145
" />
<path d="M217.2183 131.0145
L217.1578 130.8935
" />
<path d="M217.1578 130.8935
L217.0974 130.6516
" />
<path d="M217.0974 130.6516
L217.0974 130.3492
" />
<path d="M217.0974 130.3492
L217.1578 130.1073
" />
<path d="M217.1578 130.1073
L217.2183 129.9864
" />
<path d="M217.2183 129.9864
L217.2788 129.9259
" />
<path d="M217.2788 129.9259
L217.3997 129.8654
" />
</g><path style="fill:none; 
stroke:#840000; stroke-width:0.1524; stroke-opacity:1; 
stroke-linecap:round; stroke-linejoin:round;fill:none"
d="M 210.8200,110.4900
210.8200,111.7600
212.0900,111.7600
210.8200,113.0300
209.5500,111.7600
210.8200,111.7600
" /> 
</g>
<g style="fill:none; 
stroke:#840000; stroke-width:0.1524; stroke-opacity:1; 
stroke-linecap:round; stroke-linejoin:round;">
<path d="M210.8200 110.4900
L210.8200 110.4900
" />
</g>
<g style="fill:none; 
stroke:#008484; stroke-width:0.1524; stroke-opacity:1; 
stroke-linecap:round; stroke-linejoin:round;">
<text x="210.8200" y="116.2050"
textLength="4.0737" font-size="1.6933" lengthAdjust="spacingAndGlyphs"
text-anchor="middle" opacity="0" stroke-opacity="0">GND</text>
<g class="stroked-text"><desc>GND</desc>
<path d="M209.8524 114.9400
L209.7314 114.8795
" />
<path d="M209.7314 114.8795
L209.5500 114.8795
" />
<path d="M209.5500 114.8795
L209.3686 114.9400
" />
<path d="M209.3686 114.9400
L209.2476 115.0610
" />
<path d="M209.2476 115.0610
L209.1871 115.1819
" />
<path d="M209.1871 115.1819
L209.1267 115.4238
" />
<path d="M209.1267 115.4238
L209.1267 115.6052
" />
<path d="M209.1267 115.6052
L209.1871 115.8471
" />
<path d="M209.1871 115.8471
L209.2476 115.9681
" />
<path d="M209.2476 115.9681
L209.3686 116.0891
" />
<path d="M209.3686 116.0891
L209.5500 116.1495
" />
<path d="M209.5500 116.1495
L209.6709 116.1495
" />
<path d="M209.6709 116.1495
L209.8524 116.0891
" />
<path d="M209.8524 116.0891
L209.9128 116.0286
" />
<path d="M209.9128 116.0286
L209.9128 115.6052
" />
<path d="M209.9128 115.6052
L209.6709 115.6052
" />
<path d="M210.4571 116.1495
L210.4571 114.8795
" />
<path d="M210.4571 114.8795
L211.1828 116.1495
" />
<path d="M211.1828 116.1495
L211.1828 114.8795
" />
<path d="M211.7876 116.1495
L211.7876 114.8795
" />
<path d="M211.7876 114.8795
L212.0900 114.8795
" />
<path d="M212.0900 114.8795
L212.2714 114.9400
" />
<path d="M212.2714 114.9400
L212.3924 115.0610
" />
<path d="M212.3924 115.0610
L212.4529 115.1819
" />
<path d="M212.4529 115.1819
L212.5133 115.4238
" />
<path d="M212.5133 115.4238
L212.5133 115.6052
" />
<path d="M212.5133 115.6052
L212.4529 115.8471
" />
<path d="M212.4529 115.8471
L212.3924 115.9681
" />
<path d="M212.3924 115.9681
L212.2714 116.0891
" />
<path d="M212.2714 116.0891
L212.0900 116.1495
" />
<path d="M212.0900 116.1495
L211.7876 116.1495
" />
</g><text x="210.8200" y="125.0950"
textLength="5.2832" font-size="1.6933" lengthAdjust="spacingAndGlyphs"
text-anchor="middle" opacity="0" stroke-opacity="0">+3V3</text>
<g class="stroked-text"><desc>+3V3</desc>
<path d="M208.5823 124.5557
L209.5500 124.5557
" />
<path d="M209.0661 125.0395
L209.0661 124.0719
" />
<path d="M210.0338 123.7695
L210.8200 123.7695
" />
<path d="M210.8200 123.7695
L210.3966 124.2533
" />
<path d="M210.3966 124.2533
L210.5781 124.2533
" />
<path d="M210.5781 124.2533
L210.6990 124.3138
" />
<path d="M210.6990 124.3138
L210.7595 124.3743
" />
<path d="M210.7595 124.3743
L210.8200 124.4952
" />
<path d="M210.8200 124.4952
L210.8200 124.7976
" />
<path d="M210.8200 124.7976
L210.7595 124.9186
" />
<path d="M210.7595 124.9186
L210.6990 124.9791
" />
<path d="M210.6990 124.9791
L210.5781 125.0395
" />
<path d="M210.5781 125.0395
L210.2152 125.0395
" />
<path d="M210.2152 125.0395
L210.0943 124.9791
" />
<path d="M210.0943 124.9791
L210.0338 124.9186
" />
<path d="M211.1828 123.7695
L211.6061 125.0395
" />
<path d="M211.6061 125.0395
L212.0295 123.7695
" />
<path d="M212.3319 123.7695
L213.1181 123.7695
" />
<path d="M213.1181 123.7695
L212.6947 124.2533
" />
<path d="M212.6947 124.2533
L212.8762 124.2533
" />
<path d="M212.8762 124.2533
L212.9971 124.3138
" />
<path d="M212.9971 124.3138
L213.0576 124.3743
" />
<path d="M213.0576 124.3743
L213.1181 124.4952
" />
<path d="M213.1181 124.4952
L213.1181 124.7976
" />
<path d="M213.1181 124.7976
L213.0576 124.9186
" />
<path d="M213.0576 124.9186
L212.9971 124.9791
" />
<path d="M212.9971 124.9791
L212.8762 125.0395
" />
<path d="M212.8762 125.0395
L212.5133 125.0395
" />
<path d="M212.5133 125.0395
L212.3924 124.9791
" />
<path d="M212.3924 124.9791
L212.3319 124.9186
" />
</g></g>
<g style="fill:none; 
stroke:#840000; stroke-width:0.1524; stroke-opacity:1; 
stroke-linecap:round; stroke-linejoin:round;">
<path d="M210.8200 129.5400
L210.8200 129.5400
" />
</g>
<g style="fill:none; 
stroke:#008484; stroke-width:0.1524; stroke-opacity:1; 
stroke-linecap:round; stroke-linejoin:round;">
<text x="210.8200" y="106.0450"
textLength="3.6503" font-size="1.6933" lengthAdjust="spacingAndGlyphs"
text-anchor="middle" opacity="0" stroke-opacity="0">TP2</text>
<g class="stroked-text"><desc>TP2</desc>
<path d="M209.2174 104.7195
L209.9431 104.7195
" />
<path d="M209.5803 105.9895
L209.5803 104.7195
" />
<path d="M210.3664 105.9895
L210.3664 104.7195
" />
<path d="M210.3664 104.7195
L210.8502 104.7195
" />
<path d="M210.8502 104.7195
L210.9712 104.7800
" />
<path d="M210.9712 104.7800
L211.0317 104.8405
" />
<path d="M211.0317 104.8405
L211.0921 104.9614
" />
<path d="M211.0921 104.9614
L211.0921 105.1429
" />
<path d="M211.0921 105.1429
L211.0317 105.2638
" />
<path d="M211.0317 105.2638
L210.9712 105.3243
" />
<path d="M210.9712 105.3243
L210.8502 105.3848
" />
<path d="M210.8502 105.3848
L210.3664 105.3848
" />
<path d="M211.5760 104.8405
L211.6364 104.7800
" />
<path d="M211.6364 104.7800
L211.7574 104.7195
" />
<path d="M211.7574 104.7195
L212.0598 104.7195
" />
<path d="M212.0598 104.7195
L212.1807 104.7800
" />
<path d="M212.1807 104.7800
L212.2412 104.8405
" />
<path d="M212.2412 104.8405
L212.3017 104.9614
" />
<path d="M212.3017 104.9614
L212.3017 105.0824
" />
<path d="M212.3017 105.0824
L212.2412 105.2638
" />
<path d="M212.2412 105.2638
L211.5155 105.9895
" />
<path d="M211.5155 105.9895
L212.3017 105.9895
" />
</g><text x="215.6460" y="109.3470"
textLength="5.0412" font-size="1.6933" lengthAdjust="spacingAndGlyphs"
text-anchor="middle" opacity="0" stroke-opacity="0">5011</text>
<g class="stroked-text"><desc>5011</desc>
<path d="M214.1341 108.0215
L213.5293 108.0215
" />
<path d="M213.5293 108.0215
L213.4689 108.6263
" />
<path d="M213.4689 108.6263
L213.5293 108.5658
" />
<path d="M213.5293 108.5658
L213.6503 108.5053
" />
<path d="M213.6503 108.5053
L213.9527 108.5053
" />
<path d="M213.9527 108.5053
L214.0736 108.5658
" />
<path d="M214.0736 108.5658
L214.1341 108.6263
" />
<path d="M214.1341 108.6263
L214.1946 108.7472
" />
<path d="M214.1946 108.7472
L214.1946 109.0496
" />
<path d="M214.1946 109.0496
L214.1341 109.1706
" />
<path d="M214.1341 109.1706
L214.0736 109.2311
" />
<path d="M214.0736 109.2311
L213.9527 109.2915
" />
<path d="M213.9527 109.2915
L213.6503 109.2915
" />
<path d="M213.6503 109.2915
L213.5293 109.2311
" />
<path d="M213.5293 109.2311
L213.4689 109.1706
" />
<path d="M214.9807 108.0215
L215.1017 108.0215
" />
<path d="M215.1017 108.0215
L215.2226 108.0820
" />
<path d="M215.2226 108.0820
L215.2831 108.1425
" />
<path d="M215.2831 108.1425
L215.3436 108.2634
" />
<path d="M215.3436 108.2634
L215.4041 108.5053
" />
<path d="M215.4041 108.5053
L215.4041 108.8077
" />
<path d="M215.4041 108.8077
L215.3436 109.0496
" />
<path d="M215.3436 109.0496
L215.2831 109.1706
" />
<path d="M215.2831 109.1706
L215.2226 109.2311
" />
<path d="M215.2226 109.2311
L215.1017 109.2915
" />
<path d="M215.1017 109.2915
L214.9807 109.2915
" />
<path d="M214.9807 109.2915
L214.8598 109.2311
" />
<path d="M214.8598 109.2311
L214.7993 109.1706
" />
<path d="M214.7993 109.1706
L214.7388 109.0496
" />
<path d="M214.7388 109.0496
L214.6784 108.8077
" />
<path d="M214.6784 108.8077
L214.6784 108.5053
" />
<path d="M214.6784 108.5053
L214.7388 108.2634
" />
<path d="M214.7388 108.2634
L214.7993 108.1425
" />
<path d="M214.7993 108.1425
L214.8598 108.0820
" />
<path d="M214.8598 108.0820
L214.9807 108.0215
" />
<path d="M216.6136 109.2915
L215.8879 109.2915
" />
<path d="M216.2507 109.2915
L216.2507 108.0215
" />
<path d="M216.2507 108.0215
L216.1298 108.2030
" />
<path d="M216.1298 108.2030
L216.0088 108.3239
" />
<path d="M216.0088 108.3239
L215.8879 108.3844
" />
<path d="M217.8231 109.2915
L217.0974 109.2915
" />
<path d="M217.4602 109.2915
L217.4602 108.0215
" />
<path d="M217.4602 108.0215
L217.3393 108.2030
" />
<path d="M217.3393 108.2030
L217.2183 108.3239
" />
<path d="M217.2183 108.3239
L217.0974 108.3844
" />
</g></g>
<g style="fill:none; 
stroke:#840000; stroke-width:0.1524; stroke-opacity:1; 
stroke-linecap:round; stroke-linejoin:round;">
<path d="M210.8200 107.9500
L210.8200 110.4900
" />
</g>
<g style="fill:none; 
stroke:#008484; stroke-width:0.1524; stroke-opacity:1; 
stroke-linecap:round; stroke-linejoin:round;">
<text x="210.8199" y="137.0329"
textLength="3.6503" font-size="1.6933" lengthAdjust="spacingAndGlyphs"
text-anchor="middle" opacity="0" stroke-opacity="0">TP1</text>
<g class="stroked-text"><desc>TP1</desc>
<path d="M209.2173 135.7074
L209.9430 135.7074
" />
<path d="M209.5802 136.9774
L209.5802 135.7074
" />
<path d="M210.3663 136.9774
L210.3663 135.7074
" />
<path d="M210.3663 135.7074
L210.8501 135.7074
" />
<path d="M210.8501 135.7074
L210.9711 135.7679
" />
<path d="M210.9711 135.7679
L211.0316 135.8284
" />
<path d="M211.0316 135.8284
L211.0920 135.9493
" />
<path d="M211.0920 135.9493
L211.0920 136.1308
" />
<path d="M211.0920 136.1308
L211.0316 136.2517
" />
<path d="M211.0316 136.2517
L210.9711 136.3122
" />
<path d="M210.9711 136.3122
L210.8501 136.3727
" />
<path d="M210.8501 136.3727
L210.3663 136.3727
" />
<path d="M212.3016 136.9774
L211.5759 136.9774
" />
<path d="M211.9387 136.9774
L211.9387 135.7074
" />
<path d="M211.9387 135.7074
L211.8178 135.8889
" />
<path d="M211.8178 135.8889
L211.6968 136.0098
" />
<path d="M211.6968 136.0098
L211.5759 136.0703
" />
</g><text x="215.6460" y="131.1909"
textLength="5.0412" font-size="1.6933" lengthAdjust="spacingAndGlyphs"
text-anchor="middle" opacity="0" stroke-opacity="0">5010</text>
<g class="stroked-text"><desc>5010</desc>
<path d="M214.1341 129.8654
L213.5293 129.8654
" />
<path d="M213.5293 129.8654
L213.4689 130.4702
" />
<path d="M213.4689 130.4702
L213.5293 130.4097
" />
<path d="M213.5293 130.4097
L213.6503 130.3492
" />
<path d="M213.6503 130.3492
L213.9527 130.3492
" />
<path d="M213.9527 130.3492
L214.0736 130.4097
" />
<path d="M214.0736 130.4097
L214.1341 130.4702
" />
<path d="M214.1341 130.4702
L214.1946 130.5911
" />
<path d="M214.1946 130.5911
L214.1946 130.8935
" />
<path d="M214.1946 130.8935
L214.1341 131.0145
" />
<path d="M214.1341 131.0145
L214.0736 131.0750
" />
<path d="M214.0736 131.0750
L213.9527 131.1354
" />
<path d="M213.9527 131.1354
L213.6503 131.1354
" />
<path d="M213.6503 131.1354
L213.5293 131.0750
" />
<path d="M213.5293 131.0750
L213.4689 131.0145
" />
<path d="M214.9807 129.8654
L215.1017 129.8654
" />
<path d="M215.1017 129.8654
L215.2226 129.9259
" />
<path d="M215.2226 129.9259
L215.2831 129.9864
" />
<path d="M215.2831 129.9864
L215.3436 130.1073
" />
<path d="M215.3436 130.1073
L215.4041 130.3492
" />
<path d="M215.4041 130.3492
L215.4041 130.6516
" />
<path d="M215.4041 130.6516
L215.3436 130.8935
" />
<path d="M215.3436 130.8935
L215.2831 131.0145
" />
<path d="M215.2831 131.0145
L215.2226 131.0750
" />
<path d="M215.2226 131.0750
L215.1017 131.1354
" />
<path d="M215.1017 131.1354
L214.9807 131.1354
" />
<path d="M214.9807 131.1354
L214.8598 131.0750
" />
<path d="M214.8598 131.0750
L214.7993 131.0145
" />
<path d="M214.7993 131.0145
L214.7388 130.8935
" />
<path d="M214.7388 130.8935
L214.6784 130.6516
" />
<path d="M214.6784 130.6516
L214.6784 130.3492
" />
<path d="M214.6784 130.3492
L214.7388 130.1073
" />
<path d="M214.7388 130.1073
L214.7993 129.9864
" />
<path d="M214.7993 129.9864
L214.8598 129.9259
" />
<path d="M214.8598 129.9259
L214.9807 129.8654
" />
<path d="M216.6136 131.1354
L215.8879 131.1354
" />
<path d="M216.2507 131.1354
L216.2507 129.8654
" />
<path d="M216.2507 129.8654
L216.1298 130.0469
" />
<path d="M216.1298 130.0469
L216.0088 130.1678
" />
<path d="M216.0088 130.1678
L215.8879 130.2283
" />
<path d="M217.3997 129.8654
L217.5207 129.8654
" />
<path d="M217.5207 129.8654
L217.6416 129.9259
" />
<path d="M217.6416 129.9259
L217.7021 129.9864
" />
<path d="M217.7021 129.9864
L217.7626 130.1073
" />
<path d="M217.7626 130.1073
L217.8231 130.3492
" />
<path d="M217.8231 130.3492
L217.8231 130.6516
" />
<path d="M217.8231 130.6516
L217.7626 130.8935
" />
<path d="M217.7626 130.8935
L217.7021 131.0145
" />
<path d="M217.7021 131.0145
L217.6416 131.0750
" />
<path d="M217.6416 131.0750
L217.5207 131.1354
" />
<path d="M217.5207 131.1354
L217.3997 131.1354
" />
<path d="M217.3997 131.1354
L217.2788 131.0750
" />
<path d="M217.2788 131.0750
L217.2183 131.0145
" />
<path d="M217.2183 131.0145
L217.1578 130.8935
" />
<path d="M217.1578 130.8935
L217.0974 130.6516
" />
<path d="M217.0974 130.6516
L217.0974 130.3492
" />
<path d="M217.0974 130.3492
L217.1578 130.1073
" />
<path d="M217.1578 130.1073
L217.2183 129.9864
" />
<path d="M217.2183 129.9864
L217.2788 129.9259
" />
<path d="M217.2788 129.9259
L217.3997 129.8654
" />
</g></g>
<g style="fill:none; 
stroke:#840000; stroke-width:0.1524; stroke-opacity:1; 
stroke-linecap:round; stroke-linejoin:round;">
<path d="M210.8200 132.0800
L210.8200 129.5400
" />
</g>
<g style="fill:none; 
stroke:#008484; stroke-width:0.1524; stroke-opacity:1; 
stroke-linecap:round; stroke-linejoin:round;">
<text x="210.8200" y="116.2050"
textLength="4.0737" font-size="1.6933" lengthAdjust="spacingAndGlyphs"
text-anchor="middle" opacity="0" stroke-opacity="0">GND</text>
<g class="stroked-text"><desc>GND</desc>
<path d="M209.8524 114.9400
L209.7314 114.8795
" />
<path d="M209.7314 114.8795
L209.5500 114.8795
" />
<path d="M209.5500 114.8795
L209.3686 114.9400
" />
<path d="M209.3686 114.9400
L209.2476 115.0610
" />
<path d="M209.2476 115.0610
L209.1871 115.1819
" />
<path d="M209.1871 115.1819
L209.1267 115.4238
" />
<path d="M209.1267 115.4238
L209.1267 115.6052
" />
<path d="M209.1267 115.6052
L209.1871 115.8471
" />
<path d="M209.1871 115.8471
L209.2476 115.9681
" />
<path d="M209.2476 115.9681
L209.3686 116.0891
" />
<path d="M209.3686 116.0891
L209.5500 116.1495
" />
<path d="M209.5500 116.1495
L209.6709 116.1495
" />
<path d="M209.6709 116.1495
L209.8524 116.0891
" />
<path d="M209.8524 116.0891
L209.9128 116.0286
" />
<path d="M209.9128 116.0286
L209.9128 115.6052
" />
<path d="M209.9128 115.6052
L209.6709 115.6052
" />
<path d="M210.4571 116.1495
L210.4571 114.8795
" />
<path d="M210.4571 114.8795
L211.1828 116.1495
" />
<path d="M211.1828 116.1495
L211.1828 114.8795
" />
<path d="M211.7876 116.1495
L211.7876 114.8795
" />
<path d="M211.7876 114.8795
L212.0900 114.8795
" />
<path d="M212.0900 114.8795
L212.2714 114.9400
" />
<path d="M212.2714 114.9400
L212.3924 115.0610
" />
<path d="M212.3924 115.0610
L212.4529 115.1819
" />
<path d="M212.4529 115.1819
L212.5133 115.4238
" />
<path d="M212.5133 115.4238
L212.5133 115.6052
" />
<path d="M212.5133 115.6052
L212.4529 115.8471
" />
<path d="M212.4529 115.8471
L212.3924 115.9681
" />
<path d="M212.3924 115.9681
L212.2714 116.0891
" />
<path d="M212.2714 116.0891
L212.0900 116.1495
" />
<path d="M212.0900 116.1495
L211.7876 116.1495
" />
</g></g>
<g style="fill:none; 
stroke:#840000; stroke-width:0.1524; stroke-opacity:1; 
stroke-linecap:round; stroke-linejoin:round;">
<path d="M210.8200 110.4900
L210.8200 110.4900
" />
</g> 
</svg>
