<svg xmlns="http://www.w3.org/2000/svg" viewBox="0 0 780 400" role="img"
     aria-label="WROOM breakout power-flow block diagram"
     font-family="ui-monospace, 'SFMono-Regular', Menlo, monospace">
  <defs>
    <marker id="ag" markerWidth="9" markerHeight="9" refX="7" refY="3" orient="auto">
      <path d="M0,0 L7,3 L0,6 Z" fill="#c8963e"/>
    </marker>
    <marker id="ab" markerWidth="9" markerHeight="9" refX="7" refY="3" orient="auto">
      <path d="M0,0 L7,3 L0,6 Z" fill="#4a8fff"/>
    </marker>
  </defs>

  <!-- boxes: connectors/protection = blue, power ICs = gold -->
  <g stroke-width="2">
    <rect x="24"  y="62"  width="118" height="64" rx="4" fill="rgba(74,143,255,0.07)" stroke="#4a8fff"/>
    <rect x="206" y="76"  width="80"  height="36" rx="4" fill="rgba(200,150,62,0.07)" stroke="#c8963e"/>
    <rect x="352" y="62"  width="140" height="64" rx="4" fill="rgba(200,150,62,0.07)" stroke="#c8963e"/>
    <rect x="620" y="42"  width="136" height="116" rx="4" fill="rgba(200,150,62,0.07)" stroke="#c8963e"/>
    <rect x="330" y="322" width="120" height="44" rx="4" fill="rgba(74,143,255,0.07)" stroke="#4a8fff"/>
  </g>

  <!-- box labels -->
  <g text-anchor="middle">
    <text x="83"  y="90"  fill="#fff" font-size="16" font-weight="700">J1</text>
    <text x="83"  y="108" fill="#8a8a8a" font-size="11">USB-C in</text>
    <text x="246" y="93"  fill="#fff" font-size="13" font-weight="700">F1</text>
    <text x="246" y="106" fill="#8a8a8a" font-size="9.5">polyfuse</text>
    <text x="422" y="88"  fill="#fff" font-size="15" font-weight="700">U2</text>
    <text x="422" y="104" fill="#8a8a8a" font-size="10.5">RT9080 · 3.3 V LDO</text>
    <text x="688" y="92"  fill="#fff" font-size="16" font-weight="700">U1</text>
    <text x="688" y="110" fill="#8a8a8a" font-size="10.5">ESP32-S3</text>
    <text x="688" y="124" fill="#8a8a8a" font-size="10.5">WROOM-1</text>
    <text x="390" y="343" fill="#fff" font-size="13" font-weight="700">D1</text>
    <text x="390" y="357" fill="#8a8a8a" font-size="9.5">ESD array</text>
  </g>

  <!-- power spine (gold) -->
  <g stroke="#c8963e" stroke-width="2" fill="none">
    <line x1="142" y1="94" x2="200" y2="94" marker-end="url(#ag)"/>
    <line x1="286" y1="94" x2="346" y2="94" marker-end="url(#ag)"/>
    <line x1="492" y1="94" x2="614" y2="98" marker-end="url(#ag)"/>
  </g>
  <g text-anchor="middle" fill="#c8963e" font-size="11" font-weight="700">
    <text x="171" y="84">5 V</text>
    <text x="556" y="82">3.3 V</text>
  </g>

  <!-- usb data: through-line J1 <-> U1; D1 taps OFF the line to ground (shunt) -->
  <g stroke="#4a8fff" stroke-width="2" fill="none">
    <path d="M84,126 V300 H600 V150 H616" marker-end="url(#ab)"/>
    <path d="M390,300 V322"/>
  </g>
  <circle cx="390" cy="300" r="2.6" fill="#4a8fff"/>
  <g fill="#4a8fff" font-size="10" text-anchor="middle">
    <text x="170" y="292">D+ / D−</text>
    <text x="572" y="143">USB</text>
  </g>

  <!-- shunts to ground: input caps, output cap, decoupling, CC resistors, D1 clamp -->
  <g stroke="#8a8a8a" stroke-width="1.5" fill="none">
    <!-- C1 bulk + C5 (LDO input) on the 5 V rail -->
    <path d="M320,94 V118"/>
    <line x1="309" y1="118" x2="331" y2="118"/>
    <line x1="309" y1="124" x2="331" y2="124"/>
    <path d="M320,124 V138"/>
    <line x1="311" y1="138" x2="329" y2="138"/>
    <line x1="314" y1="142" x2="326" y2="142"/>
    <line x1="317" y1="146" x2="323" y2="146"/>
    <!-- C6 (LDO output) on the 3.3 V rail -->
    <path d="M540,96 V118"/>
    <line x1="529" y1="118" x2="551" y2="118"/>
    <line x1="529" y1="124" x2="551" y2="124"/>
    <path d="M540,124 V138"/>
    <line x1="531" y1="138" x2="549" y2="138"/>
    <line x1="534" y1="142" x2="546" y2="142"/>
    <line x1="537" y1="146" x2="543" y2="146"/>
    <!-- C2/C3/C7 decoupling at U1 -->
    <path d="M688,158 V182"/>
    <line x1="677" y1="182" x2="699" y2="182"/>
    <line x1="677" y1="188" x2="699" y2="188"/>
    <path d="M688,188 V202"/>
    <line x1="679" y1="202" x2="697" y2="202"/>
    <line x1="682" y1="206" x2="694" y2="206"/>
    <line x1="685" y1="210" x2="691" y2="210"/>
    <!-- R3/R4 5.1k on CC -->
    <path d="M120,126 V146"/>
    <rect x="114" y="146" width="12" height="22" rx="1.5"/>
    <path d="M120,168 V184"/>
    <line x1="111" y1="184" x2="129" y2="184"/>
    <line x1="114" y1="188" x2="126" y2="188"/>
    <line x1="117" y1="192" x2="123" y2="192"/>
    <!-- D1 clamps to ground -->
    <path d="M390,366 V372"/>
    <line x1="381" y1="372" x2="399" y2="372"/>
    <line x1="384" y1="376" x2="396" y2="376"/>
    <line x1="387" y1="380" x2="393" y2="380"/>
  </g>
  <g fill="#8a8a8a" font-size="10" text-anchor="middle">
    <text x="320" y="164">C1 10 µF bulk</text>
    <text x="320" y="176">+ C5 1 µF in</text>
    <text x="540" y="164">C6 1 µF out</text>
    <text x="688" y="230">C2·C3·C7 decoupling</text>
  </g>
  <text x="138" y="162" fill="#8a8a8a" font-size="10">R3·R4 · 5.1 kΩ Rd</text>
</svg>
