<svg xmlns="http://www.w3.org/2000/svg" viewBox="0 0 780 340" role="img"
     aria-label="WROOM breakout power-flow block diagram"
     font-family="ui-monospace, 'SFMono-Regular', Menlo, monospace">
  <defs>
    <marker id="ag" markerWidth="9" markerHeight="9" refX="7" refY="3" orient="auto">
      <path d="M0,0 L7,3 L0,6 Z" fill="#c8963e"/>
    </marker>
    <marker id="ab" markerWidth="9" markerHeight="9" refX="7" refY="3" orient="auto">
      <path d="M0,0 L7,3 L0,6 Z" fill="#4a8fff"/>
    </marker>
  </defs>

  <!-- boxes: connectors/protection = blue, power ICs = gold -->
  <g stroke-width="2">
    <rect x="24"  y="62"  width="118" height="64" rx="4" fill="rgba(74,143,255,0.07)" stroke="#4a8fff"/>
    <rect x="206" y="76"  width="80"  height="36" rx="4" fill="rgba(200,150,62,0.07)" stroke="#c8963e"/>
    <rect x="352" y="62"  width="140" height="64" rx="4" fill="rgba(200,150,62,0.07)" stroke="#c8963e"/>
    <rect x="620" y="42"  width="136" height="116" rx="4" fill="rgba(200,150,62,0.07)" stroke="#c8963e"/>
    <rect x="352" y="238" width="140" height="44" rx="4" fill="rgba(74,143,255,0.07)" stroke="#4a8fff"/>
  </g>

  <!-- box labels -->
  <g text-anchor="middle">
    <text x="83"  y="90"  fill="#fff" font-size="16" font-weight="700">J1</text>
    <text x="83"  y="108" fill="#8a8a8a" font-size="11">USB-C in</text>
    <text x="246" y="93"  fill="#fff" font-size="13" font-weight="700">F1</text>
    <text x="246" y="106" fill="#8a8a8a" font-size="9.5">polyfuse</text>
    <text x="422" y="88"  fill="#fff" font-size="15" font-weight="700">U2</text>
    <text x="422" y="104" fill="#8a8a8a" font-size="10.5">RT9080 · 3.3 V LDO</text>
    <text x="688" y="92"  fill="#fff" font-size="16" font-weight="700">U1</text>
    <text x="688" y="110" fill="#8a8a8a" font-size="10.5">ESP32-S3</text>
    <text x="688" y="124" fill="#8a8a8a" font-size="10.5">WROOM-1</text>
    <text x="422" y="259" fill="#fff" font-size="13" font-weight="700">D1</text>
    <text x="422" y="273" fill="#8a8a8a" font-size="9.5">ESD array</text>
  </g>

  <!-- power spine (gold) -->
  <g stroke="#c8963e" stroke-width="2" fill="none">
    <line x1="142" y1="94" x2="200" y2="94" marker-end="url(#ag)"/>
    <line x1="286" y1="94" x2="346" y2="94" marker-end="url(#ag)"/>
    <line x1="492" y1="94" x2="614" y2="98" marker-end="url(#ag)"/>
  </g>
  <g text-anchor="middle" fill="#c8963e" font-size="11" font-weight="700">
    <text x="171" y="84">5 V</text>
    <text x="556" y="82">3.3 V</text>
  </g>

  <!-- usb data branch (blue) -->
  <g stroke="#4a8fff" stroke-width="2" fill="none">
    <path d="M83,126 V260 H346" marker-end="url(#ab)"/>
    <path d="M492,260 H600 V150 H614" marker-end="url(#ab)"/>
  </g>
  <g fill="#4a8fff" font-size="10">
    <text x="92" y="222">D+ / D−</text>
    <text x="516" y="252">USB</text>
  </g>

  <!-- support to ground: bulk cap, decoupling, CC resistors -->
  <g stroke="#8a8a8a" stroke-width="1.5" fill="none">
    <!-- C1 bulk off the 5 V rail -->
    <path d="M320,94 V120"/>
    <line x1="309" y1="120" x2="331" y2="120"/>
    <line x1="309" y1="126" x2="331" y2="126"/>
    <path d="M320,126 V140"/>
    <line x1="311" y1="140" x2="329" y2="140"/>
    <line x1="314" y1="144" x2="326" y2="144"/>
    <line x1="317" y1="148" x2="323" y2="148"/>
    <!-- C2/C3/C7 decoupling off U1 -->
    <path d="M688,158 V186"/>
    <line x1="677" y1="186" x2="699" y2="186"/>
    <line x1="677" y1="192" x2="699" y2="192"/>
    <path d="M688,192 V206"/>
    <line x1="679" y1="206" x2="697" y2="206"/>
    <line x1="682" y1="210" x2="694" y2="210"/>
    <line x1="685" y1="214" x2="691" y2="214"/>
    <!-- R3/R4 5.1k on CC -->
    <path d="M120,126 V144"/>
    <rect x="114" y="144" width="12" height="22" rx="1.5"/>
    <path d="M120,166 V180"/>
    <line x1="111" y1="180" x2="129" y2="180"/>
    <line x1="114" y1="184" x2="126" y2="184"/>
    <line x1="117" y1="188" x2="123" y2="188"/>
  </g>
  <g fill="#8a8a8a" font-size="10">
    <text x="320" y="166" text-anchor="middle">C1 · 10 µF bulk</text>
    <text x="606" y="200" text-anchor="end">C2·C3·C7 decoupling</text>
    <text x="138" y="162">R3·R4 · 5.1 kΩ Rd</text>
  </g>
</svg>
